# xmcd
#
# Track frame offsets: 
#        150
#        10775
#        30432
#        44618
#        57102
#        69444
#        84161
#        102218
#
# Disc length: 1576 seconds
#
# Revision: 0
# Processed by: cddbd v1.5.2PL0 Copyright (c) Steve Scherf et al.
# Submitted via: ExactAudioCopy v1.0b3
#
DISCID=55062608
DTITLE=Nathalie Carbonneau - C'était écrit
DYEAR=2015
DGENRE=Country
TTITLE0=Ainsi va la vie
TTITLE1=C'était écrit
TTITLE2=Je ne peux plus aimer
TTITLE3=Les p'tits coeurs
TTITLE4=Don't Be Cruel
TTITLE5=À tous les jours
TTITLE6=Les blues dans l'coeur
TTITLE7=Une chanson pour toi
EXTD=
EXTT0=
EXTT1=
EXTT2=
EXTT3=
EXTT4=
EXTT5=
EXTT6=
EXTT7=
PLAYORDER=
